<svg viewBox="0 0 52 58" xmlns="http://www.w3.org/2000/svg"><defs><linearGradient x1="91.498%" y1="4.966%" x2="-38.335%" y2="71.91%" id="a"><stop stop-color="#00A0FF" offset="0%"/><stop stop-color="#00A1FF" offset=".657%"/><stop stop-color="#00BEFF" offset="26.01%"/><stop stop-color="#00D2FF" offset="51.22%"/><stop stop-color="#00DFFF" offset="76.04%"/><stop stop-color="#00E3FF" offset="100%"/></linearGradient><linearGradient x1="107.589%" y1="49.996%" x2="-130.472%" y2="49.996%" id="b"><stop stop-color="#FFE000" offset="0%"/><stop stop-color="#FFBD00" offset="40.87%"/><stop stop-color="orange" offset="77.54%"/><stop stop-color="#FF9C00" offset="100%"/></linearGradient><linearGradient x1="86.244%" y1="17.846%" x2="-50.144%" y2="194.808%" id="c"><stop stop-color="#FF3A44" offset="0%"/><stop stop-color="#C31162" offset="100%"/></linearGradient><linearGradient x1="-18.809%" y1="-54.151%" x2="42.094%" y2="24.87%" id="d"><stop stop-color="#32A071" offset="0%"/><stop stop-color="#2DA771" offset="6.85%"/><stop stop-color="#15CF74" offset="47.62%"/><stop stop-color="#06E775" offset="80.09%"/><stop stop-color="#00F076" offset="100%"/></linearGradient></defs><g fill-rule="nonzero" fill="none"><path d="M1.043 1.204C.388 1.888 0 2.946 0 4.316v48.998c0 1.373.388 2.431 1.043 3.111l.168.159 27.9-27.444v-.647L1.21 1.043l-.168.161z" fill="url(#a)"/><path d="M38.408 38.294L29.11 29.14v-.647l9.3-9.15.212.116 11.018 6.159c3.147 1.758 3.147 4.636 0 6.398l-11.018 6.158-.214.12z" fill="url(#b)"/><path d="M38.622 38.174l-9.512-9.357L1.043 56.429c1.037 1.081 2.752 1.214 4.68.136l32.899-18.391" fill="url(#c)"/><path d="M38.622 19.46L5.723 1.067C3.795-.01 2.08.123 1.043 1.204L29.11 28.817l9.512-9.358z" fill="url(#d)"/><g fill="#000"><path d="M38.41 37.97L5.724 56.24c-1.83 1.024-3.462.956-4.512.024l-.168.165.168.158c1.05.93 2.682 1 4.512-.022l32.899-18.391-.211-.204z" opacity=".2"/><path d="M1.043 56.105C.388 55.422 0 54.363 0 52.993v.324c0 1.373.388 2.432 1.043 3.112l.168-.165-.168-.16z" opacity=".12"/></g><path d="M49.64 31.692L38.41 37.97l.212.207L49.64 32.02c1.573-.88 2.36-2.04 2.36-3.2-.132 1.047-.935 2.076-2.36 2.873z" fill="#000" opacity=".12"/><path d="M5.723 1.392l43.917 24.55c1.429.796 2.228 1.825 2.36 2.875 0-1.16-.787-2.319-2.36-3.2L5.723 1.069C2.577-.69 0 .771 0 4.316v.324C0 1.094 2.574-.366 5.723 1.392z" fill="#FFF" opacity=".25"/></g></svg>