<svg id="Layer_1" data-name="Layer 1" xmlns="http://www.w3.org/2000/svg" xmlns:xlink="http://www.w3.org/1999/xlink" viewBox="0 0 580 580"><defs><style>.cls-1{fill:none;}.cls-2{clip-path:url(#clip-path);}.cls-3{fill:#f4f5f5;}.cls-4{fill:#32a651;}.cls-5{fill:#f8bb15;}.cls-6{clip-path:url(#clip-path-2);}.cls-7{fill:#fff;}.cls-8{fill:#fcfdff;}.cls-9{fill:#fafbfb;}.cls-10{fill:#f9fafb;}.cls-11{fill:#f7f8f9;}.cls-12{fill:#f6f7f7;}.cls-13{fill:#f5f5f5;}.cls-14{fill:#f3f3f3;}.cls-15{fill:#f2f2f2;}.cls-16{fill:#f1f1f1;}.cls-17{fill:#f0efef;}.cls-18{fill:#edeced;}.cls-19{fill:#ececec;}.cls-20{fill:#eaeaea;}.cls-21{fill:#e8e7e7;}.cls-22{clip-path:url(#clip-path-3);}.cls-23{fill:#ffc807;}.cls-24{fill:#ffc708;}.cls-25{fill:#ffc609;}.cls-26{fill:#ffc50a;}.cls-27{fill:#ffc40e;}.cls-28{fill:#ffc30c;}.cls-29{fill:#fcc10f;}.cls-30{fill:#fcbf10;}.cls-31{fill:#fdbe10;}.cls-32{fill:#fdbd10;}.cls-33{fill:#fdbc11;}.cls-34{fill:#fdbb11;}.cls-35{fill:#fcb912;}.cls-36{fill:#fcb913;}.cls-37{fill:#fcb713;}.cls-38{fill:#fcb614;}.cls-39{fill:#fcb415;}.cls-40{fill:#fcb315;}.cls-41{fill:#fbb315;}.cls-42{fill:#fbb116;}.cls-43{fill:#fbaf17;}.cls-44{fill:#fbae17;}.cls-45{fill:#faae17;}.cls-46{fill:#faac18;}.cls-47{fill:#faab18;}.cls-48{fill:#faa919;}.cls-49{fill:#faa819;}.cls-50{fill:#f9a61a;}.cls-51{fill:#547dbe;}.cls-52{fill:#868686;}.cls-53{fill:#e94435;}</style><clipPath id="clip-path"><circle class="cls-1" cx="290" cy="290" r="279"/></clipPath><clipPath id="clip-path-2"><circle class="cls-1" cx="378.5" cy="231.81" r="31.43"/></clipPath><clipPath id="clip-path-3"><circle class="cls-1" cx="378.5" cy="231.81" r="12.67"/></clipPath></defs><title>GMAPS_15thanniversarylockup_CMYK (1)</title><g class="cls-2"><polygon class="cls-3" points="367.41 -122.18 340.55 -105.8 705.83 101.99 705.73 -122.32 367.41 -122.18"/><polygon class="cls-3" points="-138.93 508.44 -138.87 640.04 -1.68 718.09 195.15 598.06 -53.73 456.49 -138.93 508.44"/><polygon class="cls-3" points="459.58 467.67 708.45 609.24 710.02 608.28 709.92 378.09 656.4 347.64 459.58 467.67"/><polygon class="cls-3" points="459.58 467.67 708.45 609.24 710.02 608.28 709.9 315.02 459.58 467.67"/><polygon class="cls-3" points="-33.02 443.86 163.81 323.83 563.31 551.08 366.48 671.11 -33.02 443.86"/><polygon class="cls-3" points="308.95 381.99 505.78 261.96 656.45 348 469.62 474.65 308.95 381.99"/><polygon class="cls-3" points="526.49 249.34 650.93 320.12 709.88 284.17 709.82 137.54 526.49 249.34"/><polygon class="cls-3" points="184.52 311.2 381.34 191.18 479.6 247.07 282.77 367.1 184.52 311.2"/><polygon class="cls-3" points="491.08 625.99 710.09 750.57 710.04 634.55 589.49 565.98 491.08 625.99"/><polygon class="cls-3" points="-139.07 184.33 -138.94 477.59 137.62 308.94 -111.25 167.37 -139.07 184.33"/><polygon class="cls-3" points="355.16 176.28 158.33 296.31 -141.96 124.64 54.87 4.62 355.16 176.28"/><polygon class="cls-3" points="-139.09 127.12 -120.22 137.86 76.61 17.83 -139.19 -104.93 -139.09 127.12"/><polygon class="cls-3" points="123.95 -126.85 -0.94 -50.69 97.31 5.2 294.14 -114.83 272.89 -126.91 123.95 -126.85"/><polygon class="cls-3" points="127.29 23.23 315.38 -99.65 698.39 118.09 500.31 234.44 127.29 23.23"/></g><path class="cls-4" d="M319.1,441.52V419a54.49,54.49,0,0,0,54.33-58.67,54.55,54.55,0,0,0-50.62-50.17l-32.8-.72A36.57,36.57,0,0,1,254.45,273V256.19H277V273a13.88,13.88,0,0,0,13.49,13.79l33.49.74a77.2,77.2,0,0,1,71.94,71,76.42,76.42,0,0,1-20.36,58.27A77.3,77.3,0,0,1,319.1,441.52Z"/><path class="cls-5" d="M254.39,256.93a36.38,36.38,0,0,1,36.37-36.41h90v22.57h-90A13.81,13.81,0,0,0,277,256.9Z"/><g class="cls-6"><polygon class="cls-7" points="409.93 217.4 389.65 200.38 409.93 200.38 409.93 217.4"/><polygon class="cls-7" points="409.93 221.12 385.21 200.38 389.65 200.38 409.93 217.4 409.93 221.12"/><polygon class="cls-7" points="409.93 224.84 380.78 200.38 385.21 200.38 409.93 221.12 409.93 224.84"/><polygon class="cls-7" points="409.93 228.56 376.35 200.38 380.78 200.38 409.93 224.84 409.93 228.56"/><polygon class="cls-7" points="409.93 232.27 371.92 200.38 376.35 200.38 409.93 228.56 409.93 232.27"/><polygon class="cls-7" points="409.93 235.99 367.49 200.38 371.92 200.38 409.93 232.27 409.93 235.99"/><polygon class="cls-7" points="409.93 239.71 363.06 200.38 367.49 200.38 409.93 235.99 409.93 239.71"/><polygon class="cls-7" points="409.93 243.43 358.63 200.38 363.06 200.38 409.93 239.71 409.93 243.43"/><polygon class="cls-8" points="409.93 247.15 356.2 202.06 357.61 200.38 358.63 200.38 409.93 243.43 409.93 247.15"/><polygon class="cls-9" points="409.93 250.68 409.84 250.79 354.37 204.25 356.2 202.06 409.93 247.15 409.93 250.68"/><rect class="cls-10" x="379.76" y="192.4" width="2.85" height="72.41" transform="translate(-38.96 373.67) rotate(-50)"/><rect class="cls-11" x="377.93" y="194.59" width="2.85" height="72.41" transform="translate(-41.28 373.05) rotate(-50)"/><rect class="cls-12" x="376.1" y="196.77" width="2.85" height="72.41" transform="translate(-43.61 372.42) rotate(-50)"/><polygon class="cls-12" points="404.34 257.33 402.51 259.52 347.08 213 347.08 212.94 348.88 210.79 404.34 257.33"/><polygon class="cls-13" points="402.51 259.52 400.68 261.7 347.08 216.72 347.08 213 402.51 259.52"/><polygon class="cls-14" points="400.68 261.7 399.39 263.23 398.08 263.23 347.08 220.44 347.08 216.72 400.68 261.7"/><polygon class="cls-15" points="393.65 263.23 347.08 224.15 347.08 220.44 398.08 263.23 393.65 263.23"/><polygon class="cls-16" points="389.22 263.23 347.08 227.87 347.08 224.15 393.65 263.23 389.22 263.23"/><polygon class="cls-17" points="384.79 263.23 347.08 231.59 347.08 227.87 389.22 263.23 384.79 263.23"/><polygon class="cls-18" points="380.36 263.23 347.08 235.31 347.08 231.59 384.79 263.23 380.36 263.23"/><polygon class="cls-19" points="375.93 263.23 347.08 239.03 347.08 235.31 380.36 263.23 375.93 263.23"/><polygon class="cls-20" points="371.49 263.23 347.08 242.75 347.08 239.03 375.93 263.23 371.49 263.23"/><polygon class="cls-21" points="367.06 263.23 347.08 246.46 347.08 242.75 371.49 263.23 367.06 263.23"/><polygon class="cls-21" points="347.08 246.46 367.06 263.23 347.08 263.23 347.08 246.46"/></g><circle class="cls-7" cx="378.64" cy="231.67" r="29.83"/><g class="cls-22"><polygon class="cls-23" points="391.17 225.9 383.11 219.14 391.17 219.14 391.17 225.9"/><polygon class="cls-23" points="391.17 226.93 381.88 219.14 383.11 219.14 391.17 225.9 391.17 226.93"/><polygon class="cls-24" points="391.17 227.97 380.65 219.14 381.88 219.14 391.17 226.93 391.17 227.97"/><polygon class="cls-25" points="391.17 229 379.42 219.14 380.65 219.14 391.17 227.97 391.17 229"/><polygon class="cls-26" points="391.17 230.03 378.19 219.14 379.42 219.14 391.17 229 391.17 230.03"/><polygon class="cls-27" points="391.17 231.06 376.96 219.14 378.19 219.14 391.17 230.03 391.17 231.06"/><polygon class="cls-28" points="391.17 232.09 375.73 219.14 376.96 219.14 391.17 231.06 391.17 232.09"/><polygon class="cls-29" points="391.17 233.13 374.5 219.14 375.73 219.14 391.17 232.09 391.17 233.13"/><polygon class="cls-30" points="391.17 234.16 373.27 219.14 374.5 219.14 391.17 233.13 391.17 234.16"/><polygon class="cls-30" points="391.17 235.19 372.04 219.14 373.27 219.14 391.17 234.16 391.17 235.19"/><polygon class="cls-31" points="391.17 236.22 370.81 219.14 372.04 219.14 391.17 235.19 391.17 236.22"/><polygon class="cls-32" points="391.17 237.25 369.58 219.14 370.81 219.14 391.17 236.22 391.17 237.25"/><polygon class="cls-33" points="391.17 238.29 368.92 219.62 369.32 219.14 369.58 219.14 391.17 237.25 391.17 238.29"/><polygon class="cls-34" points="391.17 239.32 368.41 220.22 368.92 219.62 391.17 238.29 391.17 239.32"/><polygon class="cls-35" points="391.17 240.32 391.16 240.34 367.9 220.83 368.41 220.22 391.17 239.32 391.17 240.32"/><rect class="cls-36" x="378.88" y="215.71" width="0.79" height="30.35" transform="translate(-41.39 373.02) rotate(-50)"/><rect class="cls-37" x="378.37" y="216.32" width="0.79" height="30.35" transform="translate(-42.03 372.85) rotate(-50)"/><rect class="cls-38" x="377.86" y="216.92" width="0.79" height="30.35" transform="translate(-42.68 372.67) rotate(-50)"/><rect class="cls-39" x="377.36" y="217.53" width="0.79" height="30.35" transform="translate(-43.32 372.5) rotate(-50)"/><polygon class="cls-40" points="389.12 242.76 388.62 243.37 365.83 224.25 365.83 223.3 365.87 223.25 389.12 242.76"/><polygon class="cls-41" points="388.62 243.37 388.11 243.97 365.83 225.28 365.83 224.25 388.62 243.37"/><polygon class="cls-42" points="388.11 243.97 387.68 244.48 387.48 244.48 365.83 226.31 365.83 225.28 388.11 243.97"/><polygon class="cls-42" points="386.25 244.48 365.83 227.35 365.83 226.31 387.48 244.48 386.25 244.48"/><polygon class="cls-43" points="385.02 244.48 365.83 228.38 365.83 227.35 386.25 244.48 385.02 244.48"/><polygon class="cls-44" points="383.79 244.48 365.83 229.41 365.83 228.38 385.02 244.48 383.79 244.48"/><polygon class="cls-45" points="382.56 244.48 365.83 230.44 365.83 229.41 383.79 244.48 382.56 244.48"/><polygon class="cls-46" points="381.33 244.48 365.83 231.47 365.83 230.44 382.56 244.48 381.33 244.48"/><polygon class="cls-47" points="380.1 244.48 365.83 232.51 365.83 231.47 381.33 244.48 380.1 244.48"/><polygon class="cls-47" points="378.87 244.48 365.83 233.54 365.83 232.51 380.1 244.48 378.87 244.48"/><polygon class="cls-48" points="377.64 244.48 365.83 234.57 365.83 233.54 378.87 244.48 377.64 244.48"/><polygon class="cls-49" points="376.41 244.48 365.83 235.6 365.83 234.57 377.64 244.48 376.41 244.48"/><polygon class="cls-49" points="375.18 244.48 365.83 236.63 365.83 235.6 376.41 244.48 375.18 244.48"/><polygon class="cls-50" points="373.95 244.48 365.83 237.67 365.83 236.63 375.18 244.48 373.95 244.48"/><polygon class="cls-50" points="365.83 237.67 373.95 244.48 365.83 244.48 365.83 237.67"/></g><path class="cls-51" d="M319.1,441.52h-1.35a75.55,75.55,0,0,1-68.22-43.46L270,388.52A52.92,52.92,0,0,0,317.75,419h1.35a54.45,54.45,0,0,0,49.22-77.83l20.36-9.74a77,77,0,0,1-13.1,85.5A77.3,77.3,0,0,1,319.1,441.52Z"/><path class="cls-52" d="M293.47,364.12l-4.14-6.23h2.76l2.46,3.85h.13l2.37-3.85h2.8l-4.07,6.23v5.42h-2.31Z"/><path class="cls-52" d="M303.21,357.89H311V360h-5.48v2.7h4.93v2.08h-4.93v2.7H311v2.09h-7.79Z"/><path class="cls-52" d="M318.54,357.89h2.66l4.62,11.65h-2.56l-1-2.79h-4.7l-1,2.79H314Zm2.94,6.85-1.08-2.93-.45-1.4h-.14l-.44,1.4-1.1,2.93Z"/><path class="cls-52" d="M329.2,357.89h4.47a4.78,4.78,0,0,1,2.14.47,3.46,3.46,0,0,1,2,3.21,3,3,0,0,1-.75,2,4.2,4.2,0,0,1-1.87,1.26l0,.11,3.29,4.48v.13h-2.66l-3.17-4.38h-1.08v4.38H329.2Zm4.46,5.25a1.84,1.84,0,0,0,1.28-.45,1.51,1.51,0,0,0,.5-1.16,1.55,1.55,0,0,0-.47-1.13,1.72,1.72,0,0,0-1.28-.48h-2.18v3.22Z"/><path class="cls-52" d="M342.64,368.93a4.49,4.49,0,0,1-1.73-2.44l2.18-.81a3,3,0,0,0,.87,1.48,2.23,2.23,0,0,0,1.55.55,2.37,2.37,0,0,0,1.32-.36,1.18,1.18,0,0,0,.55-1,1.29,1.29,0,0,0-.53-1.06,6.69,6.69,0,0,0-1.86-.89l-.75-.26a5.24,5.24,0,0,1-2-1.2,2.67,2.67,0,0,1-.84-2,3,3,0,0,1,.5-1.66,3.37,3.37,0,0,1,1.41-1.18,4.67,4.67,0,0,1,2.05-.43,4.24,4.24,0,0,1,2.63.74,3.82,3.82,0,0,1,1.32,1.73l-2,.82a2,2,0,0,0-.66-.91,2,2,0,0,0-1.21-.36,2.16,2.16,0,0,0-1.24.33,1,1,0,0,0-.49.87,1.1,1.1,0,0,0,.46.89,5,5,0,0,0,1.53.7l.77.25a6,6,0,0,1,2.44,1.37,3,3,0,0,1,.85,2.24,3,3,0,0,1-.62,1.93,3.9,3.9,0,0,1-1.58,1.18,5.31,5.31,0,0,1-2,.39A4.81,4.81,0,0,1,342.64,368.93Z"/><path class="cls-53" d="M235.66,342.34H213.09V196.69a13.81,13.81,0,0,0-13.8-13.79h-24V160.33h24a36.41,36.41,0,0,1,36.37,36.36Z"/></svg>